#!OML:ASF X:\für Bonn\!DataBase\2005_08_10_Bjorn_Final\c3d\bjorn.ASF
:FULLY-SPECIFIED
:DEGREES
377
root -0.268365 1.77936 9.91154 -2426.03 -13.1589 194.711
lowerback 27.6363 8.66341 -6.35283
upperback 26.0424 2.59762 0.86107
thorax 13.8588 -3.75491 2.9352
lowerneck 5.89932 4.09058 6.99746
upperneck 24.8689 2.15862 1.84141
head 6.78424 0.498672 -0.652846
rclavicle 2.38542e-015 2.54444e-014
rhumerus -351.423 -15.9972 280.623
rradius 22.6749
rwrist 17.5016
rhand -11.7722 14.4941
rfingers 7.12502
rthumb 14.2765 -14.9951
lclavicle 2.38542e-015 2.54444e-014
lhumerus 20.7587 -17.0256 78.5975
lradius 28.1379
lwrist -15.423
lhand -38.6114 -20.9216
lfingers 7.12502
lthumb -11.6289 728.736
rfemur -228.842 -147.941 167.795
rtibia 108.316
rfoot 39.4032 11.3361
rtoes 3.14857
lfemur 118.793 182.804 158.219
ltibia 112.565
lfoot 34.0995 1.19546
ltoes 1.70557
378
root -0.274905 1.77301 9.9409 -2426.67 -13.0078 194.945
lowerback 27.4076 8.71687 -6.3984
upperback 25.9817 2.77809 0.880723
thorax 13.8601 -3.63462 2.96893
lowerneck 6.12126 3.88161 7.04694
upperneck 25.1781 1.73947 2.01804
head 6.84256 0.275139 -0.628232
rclavicle 2.3059e-014 0
rhumerus -351.903 -15.8678 280.974
rradius 22.8833
rwrist 16.9138
rhand -11.5293 14.0844
rfingers 7.12502
rthumb 14.5105 -15.3882
lclavicle 2.3059e-014 0
lhumerus 20.2592 -16.1954 79.3308
lradius 28.4572
lwrist -17.1431
lhand -38.7778 -21.4738
lfingers 7.12502
lthumb -11.7894 728.174
rfemur -227.82 -148.092 167.523
rtibia 107.971
rfoot 39.3419 11.0633
rtoes 2.92443
lfemur 119.622 182.754 158.325
ltibia 112.29
lfoot 34.0758 1.1687
ltoes 1.58221
379
root -0.280863 1.76563 9.96949 -2427.34 -12.8694 195.174
lowerback 27.1933 8.78176 -6.45535
upperback 25.9409 2.95973 0.895423
thorax 13.8802 -3.52247 3.00053
lowerneck 6.32329 3.6784 7.05145
upperneck 25.4444 1.322 2.25902
head 6.8897 0.0549078 -0.573904
rclavicle 2.54444e-014 -1.27222e-013
rhumerus -352.347 -15.8749 281.256
rradius 23.1057
rwrist 16.4481
rhand -11.2629 13.7358
rfingers 7.12502
rthumb 14.7672 -15.7181
lclavicle 2.54444e-014 -1.27222e-013
lhumerus 19.7846 -15.2784 80.0303
lradius 28.8157
lwrist -19.0904
lhand -38.9586 -21.9995
lfingers 7.12502
lthumb -11.9637 727.639
rfemur -226.764 -148.247 167.213
rtibia 107.632
rfoot 39.2887 10.8547
rtoes 2.4846
lfemur 120.474 182.69 158.423
ltibia 112.028
lfoot 34.0683 1.15621
ltoes 1.54736
380
root -0.287331 1.75843 9.9999 -2428.03 -12.7008 195.391
lowerback 26.9691 8.84827 -6.48802
upperback 25.9166 3.14263 0.929054
thorax 13.9255 -3.41324 3.03912
lowerneck 6.53778 3.47722 6.98629
upperneck 25.6459 0.91729 2.52029
head 6.91292 -0.161468 -0.499404
rclavicle -1.51076e-014 3.18055e-014
rhumerus -352.74 -15.9712 281.547
rradius 23.3209
rwrist 16.0549
rhand -11.0341 13.4583
rfingers 7.12502
rthumb 14.9877 -15.9793
lclavicle -1.51076e-014 3.18055e-014
lhumerus 19.321 -14.2554 80.776
lradius 29.2107
lwrist -21.2361
lhand -39.2661 -22.6014
lfingers 7.12502
lthumb -12.2602 727.019
rfemur -225.696 -148.439 166.929
rtibia 107.288
rfoot 39.2429 10.5982
rtoes 2.17791
lfemur 121.337 182.605 158.556
ltibia 111.778
lfoot 34.0327 1.11328
ltoes 1.57302
381
root -0.293509 1.75131 10.031 -2428.75 -12.5019 195.592
lowerback 26.7676 8.92797 -6.47675
upperback 25.8897 3.34663 0.951504
thorax 13.9587 -3.28623 3.0391
lowerneck 6.77006 3.26638 6.99997
upperneck 25.8331 0.49372 2.79654
head 6.93193 -0.3809 -0.433382
rclavicle 5.56597e-015 -3.81667e-014
rhumerus -353.172 -16.1393 281.806
rradius 23.5352
rwrist 15.7115
rhand -10.8515 13.2711
rfingers 7.12502
rthumb 15.1636 -16.1533
lclavicle 5.56597e-015 -3.81667e-014
lhumerus 18.8398 -13.2843 81.4544
lradius 29.6876
lwrist -23.3845
lhand -39.7035 -23.2642
lfingers 7.12502
lthumb -12.6819 726.331
rfemur -224.589 -148.659 166.672
rtibia 106.927
rfoot 39.2065 10.4905
rtoes 1.68338
lfemur 122.245 182.48 158.732
ltibia 111.539
lfoot 34.0092 1.02098
ltoes 1.56113
382
root -0.298473 1.74431 10.061 -2429.49 -12.2859 195.789
lowerback 26.5773 9.00702 -6.48754
upperback 25.8548 3.54551 0.985971
thorax 13.9753 -3.16534 3.06563
lowerneck 6.98752 3.06601 6.93089
upperneck 26.0113 0.077996 3.10856
head 6.95033 -0.60141 -0.340517
rclavicle 0 5.40694e-014
rhumerus -353.597 -16.2854 282.066
rradius 23.7798
rwrist 15.3755
rhand -10.5988 13.0223
rfingers 7.12502
rthumb 15.407 -16.3836
lclavicle 0 5.40694e-014
lhumerus 18.3566 -12.3817 82.0679
lradius 30.2392
lwrist -25.3401
lhand -40.3255 -23.9243
lfingers 7.12502
lthumb -13.2816 725.633
rfemur -223.46 -148.885 166.422
rtibia 106.564
rfoot 39.2026 10.4312
rtoes 1.21102
lfemur 123.176 182.325 158.947
ltibia 111.302
lfoot 33.9612 0.952001
ltoes 1.59449
383
root -0.303544 1.73749 10.0907 -2430.24 -12.0534 195.993
lowerback 26.3631 9.07606 -6.4625
upperback 25.817 3.7453 1.0061
thorax 14.003 -3.03455 3.05946
lowerneck 7.17959 2.86654 6.8841
upperneck 26.1875 -0.339481 3.42755
head 6.9747 -0.819757 -0.248452
rclavicle -2.54444e-014 9.54166e-015
rhumerus -354.016 -16.4684 282.281
rradius 24.0252
rwrist 15.0054
rhand -10.342 12.788
rfingers 7.12502
rthumb 15.6543 -16.5987
lclavicle -2.54444e-014 9.54166e-015
lhumerus 17.8266 -11.6489 82.5714
lradius 31.0027
lwrist -27.0343
lhand -41.0383 -24.52
lfingers 7.12502
lthumb -13.9685 724.991
rfemur -222.336 -149.105 166.19
rtibia 106.2
rfoot 39.2177 10.5649
rtoes 0.423973
lfemur 124.1 182.171 159.183
ltibia 111.084
lfoot 33.9244 0.80551
ltoes 1.48841
384
root -0.308914 1.731 10.1198 -2431.01 -11.7731 196.173
lowerback 26.147 9.14261 -6.44524
upperback 25.7887 3.93483 1.05608
thorax 14.0421 -2.9178 3.09137
lowerneck 7.39012 2.67858 6.73916
upperneck 26.2958 -0.725494 3.75406
head 6.97322 -1.02922 -0.134502
rclavicle -4.13472e-014 -7.63333e-014
rhumerus -354.36 -16.5445 282.512
rradius 24.2299
rwrist 14.5763
rhand -10.1027 12.5539
rfingers 7.12502
rthumb 15.8847 -16.8145
lclavicle -4.13472e-014 -7.63333e-014
lhumerus 17.2493 -11.0447 82.9933
lradius 32.002
lwrist -28.3211
lhand -41.7856 -25.0364
lfingers 7.12502
lthumb -14.6886 724.423
rfemur -221.177 -149.374 165.995
rtibia 105.828
rfoot 39.2728 10.6275
rtoes -0.181652
lfemur 125.066 181.976 159.497
ltibia 110.869
lfoot 33.8766 0.729974
ltoes 1.59158
385
root -0.313318 1.72564 10.1489 -2431.78 -11.4918 196.346
lowerback 25.9001 9.20571 -6.44232
upperback 25.7555 4.12579 1.08366
thorax 14.0903 -2.79791 3.10834
lowerneck 7.55687 2.49125 6.6614
upperneck 26.404 -1.10139 4.03832
head 6.98166 -1.2285 -0.0448199
rclavicle 4.77083e-014 -3.18055e-015
rhumerus -354.649 -16.7441 282.652
rradius 24.3823
rwrist 14.2611
rhand -9.78484 12.4363
rfingers 7.12502
rthumb 16.1908 -16.9076
lclavicle 4.77083e-014 -3.18055e-015
lhumerus 16.6766 -10.5976 83.2916
lradius 33.0994
lwrist -29.3171
lhand -42.5968 -25.3993
lfingers 7.12502
lthumb -15.47 724.002
rfemur -220.028 -149.654 165.806
rtibia 105.466
rfoot 39.3026 10.76
rtoes -0.818571
lfemur 126.041 181.78 159.816
ltibia 110.652
lfoot 33.8301 0.535074
ltoes 1.53479
386
root -0.318971 1.7204 10.1768 -2432.56 -11.1927 196.52
lowerback 25.632 9.25083 -6.40807
upperback 25.7139 4.30715 1.09211
thorax 14.144 -2.67246 3.09207
lowerneck 7.7004 2.29849 6.6249
upperneck 26.5719 -1.49293 4.27773
head 7.01602 -1.43702 0.021975
rclavicle 2.06736e-014 6.36111e-015
rhumerus -354.864 -17.1422 282.711
rradius 24.4184
rwrist 14.1995
rhand -9.44723 12.4891
rfingers 7.12502
rthumb 16.5159 -16.828
lclavicle 2.06736e-014 6.36111e-015
lhumerus 16.141 -10.2965 83.5074
lradius 34.2027
lwrist -29.9147
lhand -43.2974 -25.6228
lfingers 7.12502
lthumb -16.1447 723.725
rfemur -218.876 -149.927 165.615
rtibia 105.101
rfoot 39.392 10.9007
rtoes -1.45938
lfemur 126.998 181.584 160.16
ltibia 110.458
lfoot 33.7989 0.331827
ltoes 1.48796
